<?xml version="1.0" standalone="no"?>
<!DOCTYPE svg PUBLIC "-//W3C//DTD SVG 20010904//EN"
 "http://www.w3.org/TR/2001/REC-SVG-20010904/DTD/svg10.dtd">
<svg version="1.0" xmlns="http://www.w3.org/2000/svg"
 width="545.000000pt" height="545.000000pt" viewBox="0 0 545.000000 545.000000"
 preserveAspectRatio="xMidYMid meet">
<metadata>
Created by potrace 1.14, written by Peter Selinger 2001-2017
</metadata>
<g transform="translate(0.000000,545.000000) scale(0.100000,-0.100000)"
fill="#000000" stroke="none">
<path d="M1015 4452 c-2 -2 -19 -6 -37 -7 -18 -2 -46 -9 -63 -15 -16 -6 -30
-11 -30 -10 0 1 -13 -3 -28 -9 -16 -6 -31 -11 -35 -11 -6 0 -81 -49 -92 -60
-3 -3 -22 -20 -43 -38 -21 -17 -34 -32 -30 -32 4 0 -2 -7 -13 -15 -10 -8 -16
-15 -12 -15 4 0 -4 -12 -18 -27 -13 -14 -22 -28 -19 -31 3 -3 -1 -12 -9 -21
-13 -15 -54 -122 -61 -160 -2 -9 -4 -16 -5 -16 -8 0 -26 -199 -24 -270 3 -115
23 -282 40 -337 3 -9 6 -25 8 -35 2 -10 10 -38 17 -63 15 -53 13 -46 23 -90 5
-19 12 -40 17 -46 6 -7 11 -26 12 -43 1 -17 5 -31 8 -31 10 0 17 -47 9 -60 -6
-9 -63 -28 -140 -45 -42 -10 -83 -25 -96 -36 -8 -6 -14 -8 -14 -5 0 4 -10 1
-22 -6 -13 -7 -26 -12 -29 -13 -11 0 -84 -40 -87 -47 -2 -5 -10 -8 -18 -8 -8
0 -14 -4 -14 -10 0 -5 -4 -10 -10 -10 -12 0 -56 -45 -72 -73 -14 -27 -19 -87
-6 -87 5 0 6 -5 3 -11 -4 -5 2 -18 14 -28 11 -10 18 -21 14 -24 -3 -4 3 -10
13 -14 10 -3 26 -14 34 -22 19 -21 155 -91 175 -91 8 0 15 -5 15 -12 0 -6 3
-8 7 -5 3 4 12 2 20 -4 7 -6 13 -8 13 -4 0 4 6 3 13 -2 6 -6 26 -14 42 -18 17
-5 32 -9 35 -10 103 -31 102 -31 149 -40 19 -3 38 -8 41 -10 4 -3 25 -7 46
-10 22 -3 46 -8 54 -11 8 -3 31 -8 50 -10 19 -3 46 -7 60 -10 14 -4 43 -8 65
-9 22 -2 40 -4 40 -5 0 -3 40 -10 90 -15 28 -3 66 -7 85 -10 75 -12 196 -24
295 -31 131 -9 210 -14 235 -17 20 -2 32 8 58 46 17 27 32 50 32 52 0 8 50 54
50 47 1 -4 10 4 20 17 11 13 20 20 20 17 0 -4 10 0 23 8 12 8 36 18 52 21 17
4 302 7 635 8 l605 1 1 -75 c0 -41 -1 -78 -3 -84 -2 -7 -189 -10 -538 -9 -388
1 -537 -2 -542 -10 -12 -17 -10 -95 2 -99 5 -2 250 -3 543 -2 528 1 532 1 533
-20 5 -75 4 -142 -2 -155 -6 -13 -80 -15 -546 -15 l-538 0 0 -57 -1 -58 542 0
c424 0 543 -3 546 -12 4 -11 3 -127 -1 -150 0 -4 -29 -7 -64 -6 -35 1 -69 -2
-75 -6 -7 -4 -12 -4 -12 1 0 10 -131 10 -147 0 -7 -5 -13 -5 -13 0 0 10 -141
10 -158 -1 -7 -4 -12 -4 -12 1 0 9 -317 9 -327 0 -3 -4 -14 -2 -24 3 -12 7
-20 7 -24 0 -5 -8 -11 -8 -20 0 -9 8 -15 8 -20 0 -3 -6 -11 -8 -16 -4 -15 9
-124 8 -139 -1 -8 -5 -11 -4 -7 3 5 7 -7 8 -35 5 -64 -7 -117 -1 -165 19 -15
6 -31 11 -35 10 -5 -1 -8 2 -8 8 0 5 -5 10 -11 10 -5 0 -24 13 -42 30 -18 16
-36 30 -40 30 -5 0 -6 4 -3 9 3 4 -3 16 -14 26 -11 10 -20 23 -20 29 0 6 -9
22 -19 35 -17 22 -25 24 -142 27 -160 5 -289 13 -299 19 -5 3 -16 2 -24 -1
-13 -5 16 -39 121 -143 76 -75 163 -157 193 -183 30 -25 69 -58 85 -72 17 -14
35 -26 40 -26 6 0 16 -9 23 -20 7 -11 17 -20 23 -20 10 0 24 -10 57 -41 26
-24 140 -99 151 -99 5 0 11 -4 13 -8 4 -10 105 -72 118 -72 6 0 10 -4 10 -10
0 -5 4 -10 9 -10 5 0 42 -19 83 -42 123 -70 284 -148 383 -187 49 -18 53 -19
100 -2 28 10 64 25 81 34 17 9 34 13 38 10 3 -4 6 -1 6 5 0 7 5 12 11 12 11 0
199 93 264 130 22 13 63 36 90 52 92 53 120 70 125 77 3 3 17 12 32 20 15 8
36 22 45 31 10 9 26 19 36 23 9 3 17 11 17 17 0 5 7 10 15 10 8 0 15 5 15 10
0 6 6 10 13 10 6 0 29 16 50 36 20 19 37 33 37 30 0 -3 8 2 18 12 38 36 96 82
104 82 5 0 6 5 3 10 -3 6 -1 10 6 10 6 0 26 16 45 35 18 19 35 35 38 35 10 0
276 275 276 286 0 2 20 25 45 51 25 26 53 60 61 76 8 15 18 27 23 27 4 0 13
10 18 23 12 23 36 57 66 88 9 11 14 19 11 19 -3 0 1 6 8 14 15 16 23 27 81
116 23 36 48 78 56 93 8 15 18 27 23 27 4 0 8 9 8 20 0 11 4 20 9 20 5 0 13
10 17 23 3 12 15 33 24 47 10 14 17 27 17 30 0 3 18 43 40 90 50 104 66 142
88 200 20 53 27 72 49 125 9 22 18 49 20 60 2 11 6 27 8 35 2 11 -5 14 -32 13
-44 -3 -125 -11 -125 -13 0 -3 -54 -11 -100 -15 -27 -2 -50 -4 -50 -5 0 -1
-22 -3 -50 -5 -27 -2 -75 -6 -105 -9 -77 -7 -173 -15 -254 -21 -37 -3 -72 -7
-76 -10 -5 -3 -11 -1 -15 5 -4 6 -12 7 -18 3 -6 -4 -34 -8 -61 -9 -28 -1 -52
-7 -54 -13 -2 -6 -10 -18 -18 -25 -8 -8 -14 -19 -14 -24 0 -5 -14 -21 -30 -35
-17 -15 -30 -31 -30 -35 0 -5 -12 -15 -27 -23 -16 -8 -30 -16 -33 -20 -11 -11
-80 -50 -80 -44 0 3 -9 1 -21 -5 -11 -6 -29 -13 -40 -16 -10 -2 -29 -7 -41
-10 -36 -9 -100 -20 -158 -27 -17 -2 -30 1 -30 6 0 4 -6 5 -12 0 -16 -10 -208
-11 -214 -1 -3 4 -12 4 -21 1 -14 -6 -79 -8 -85 -3 -3 2 -16 4 -80 13 -13 2
-43 7 -68 12 -25 5 -47 9 -50 10 -3 0 -11 4 -17 8 -7 5 -13 6 -13 3 0 -3 -26
4 -57 15 -32 11 -58 19 -58 19 0 -1 -13 4 -30 10 -16 7 -39 14 -49 16 -11 2
-23 9 -27 15 -4 6 -12 8 -18 5 -6 -4 -11 -3 -11 1 0 5 -14 17 -32 27 -64 38
-130 104 -155 156 -19 37 -27 157 -11 166 4 3 6 10 3 15 -4 5 -1 9 5 9 6 0 8
5 5 10 -3 6 -3 10 2 10 4 0 14 14 22 31 7 16 15 28 18 26 2 -3 14 5 27 17 38
36 63 54 85 61 12 3 21 10 21 15 0 5 14 11 31 15 17 4 33 13 36 21 3 8 9 11
14 8 5 -3 15 -2 22 3 6 4 18 8 26 10 8 1 17 5 20 10 3 4 11 8 16 8 15 0 119
27 130 33 5 3 21 7 35 8 14 1 39 5 55 9 17 4 44 8 60 10 17 2 62 6 100 10 89
10 224 10 295 1 102 -13 99 -13 195 -37 94 -23 172 -67 237 -133 51 -51 64
-59 96 -59 61 0 281 16 382 28 19 2 60 7 90 10 59 7 95 13 95 15 0 1 20 4 45
6 59 6 95 12 95 14 0 1 11 3 25 5 14 1 39 6 55 9 17 4 39 8 50 10 162 28 369
89 487 145 63 30 171 101 154 101 -5 0 0 10 12 23 63 66 19 161 -108 235 -25
14 -48 31 -52 37 -4 5 -8 7 -8 3 0 -4 -21 3 -47 17 -26 13 -51 21 -55 19 -4
-3 -8 0 -8 7 0 7 -3 9 -7 6 -3 -4 -11 -3 -17 2 -9 7 -53 22 -108 37 -5 1 -9 2
-10 4 -2 1 -10 3 -18 5 -8 1 -39 10 -67 18 -29 9 -53 13 -53 9 0 -3 -5 -1 -12
6 -7 7 -20 12 -30 12 -10 0 -18 4 -18 8 0 12 -99 112 -110 112 -6 0 -10 4 -10
8 0 7 -57 45 -70 47 -3 1 -21 8 -41 17 -20 9 -51 19 -70 23 -19 4 -39 11 -44
16 -6 4 -17 4 -25 -1 -8 -5 -21 -5 -29 -1 -9 5 -56 7 -106 5 -123 -6 -135 -7
-135 -14 0 -4 -10 -6 -22 -5 -13 1 -49 -6 -80 -16 -32 -9 -58 -15 -58 -12 0 3
-7 0 -15 -7 -8 -6 -18 -9 -24 -6 -5 3 -11 2 -13 -3 -1 -6 -14 -12 -28 -15 -36
-7 -93 -27 -104 -37 -6 -5 -18 -9 -28 -9 -10 0 -18 -4 -18 -10 0 -5 -8 -10
-17 -10 -10 -1 -34 -9 -53 -20 -19 -10 -53 -27 -76 -38 -22 -10 -85 -45 -140
-77 -54 -32 -112 -65 -129 -73 -16 -9 -33 -20 -37 -26 -4 -6 -11 -11 -15 -11
-11 -1 -96 -57 -105 -70 -5 -7 -8 -7 -8 0 0 6 -5 2 -11 -7 -5 -10 -14 -18 -19
-18 -9 0 -36 -19 -65 -47 -8 -7 -16 -13 -20 -13 -3 0 -27 -17 -54 -37 -27 -21
-61 -47 -75 -57 -15 -11 -36 -27 -46 -36 -10 -9 -31 -25 -45 -36 -15 -10 -33
-25 -40 -31 -8 -7 -19 -13 -25 -13 -6 0 -8 -4 -5 -10 4 -6 -6 -10 -22 -10 -18
0 -42 12 -65 33 -19 17 -50 43 -68 57 -19 14 -39 31 -47 38 -7 7 -13 10 -13 6
0 -4 -8 3 -19 14 -10 12 -21 19 -24 16 -3 -3 -12 3 -19 15 -7 12 -17 21 -23
21 -5 0 -23 11 -40 25 -43 36 -43 35 -125 89 -41 27 -76 53 -78 58 -2 4 -13 8
-24 8 -12 0 -18 3 -15 7 7 6 -4 13 -93 59 -25 13 -41 24 -35 24 11 0 -59 39
-77 42 -7 2 -18 10 -25 18 -7 8 -13 11 -13 5 0 -6 -3 -6 -8 0 -9 14 -197 105
-216 105 -7 0 -19 6 -26 14 -6 8 -18 12 -26 9 -8 -3 -14 0 -14 6 0 6 -9 11
-20 11 -11 0 -20 5 -20 11 0 5 -3 8 -8 5 -4 -2 -32 4 -62 15 -30 11 -57 19
-60 19 -3 1 -21 5 -40 10 -88 23 -151 31 -263 34 -49 1 -90 0 -92 -2z"/>
</g>
</svg>
